<?xml version="1.0" standalone="no"?>
<!DOCTYPE svg PUBLIC "-//W3C//DTD SVG 20010904//EN"
 "http://www.w3.org/TR/2001/REC-SVG-20010904/DTD/svg10.dtd">
<svg version="1.0" xmlns="http://www.w3.org/2000/svg"
 width="512.000000pt" height="512.000000pt" viewBox="0 0 512.000000 512.000000"
 preserveAspectRatio="xMidYMid meet">

<g transform="translate(0.000000,512.000000) scale(0.100000,-0.100000)"
fill="#000000" stroke="none">
<path d="M390 5102 c-19 -9 -45 -32 -57 -51 l-23 -34 0 -2457 0 -2457 23 -34
c12 -19 38 -42 57 -51 33 -17 143 -18 1863 -18 1775 0 1829 1 1865 19 22 11
46 35 60 59 l22 40 0 684 0 684 61 90 c33 49 66 94 72 100 9 9 51 6 172 -12
88 -12 171 -20 185 -17 72 16 120 76 120 147 0 26 -62 176 -206 504 -114 257
-206 472 -205 477 0 6 17 60 37 120 19 61 42 131 50 157 8 26 37 84 64 130
120 199 129 336 33 508 -20 36 -49 89 -65 117 -16 29 -42 99 -57 155 -49 181
-94 255 -197 321 l-64 41 0 338 c0 320 -1 341 -20 378 -13 26 -34 47 -60 60
-39 20 -55 20 -1867 20 -1720 0 -1830 -1 -1863 -18z m3510 -483 l0 -201 -25
16 c-126 83 -244 122 -337 112 -74 -7 -137 -32 -256 -100 -68 -38 -130 -64
-206 -85 -143 -40 -205 -70 -266 -127 -61 -57 -98 -131 -136 -271 l-27 -103
-761 0 c-486 0 -774 -4 -798 -10 -48 -14 -94 -67 -103 -119 -5 -33 -2 -51 17
-88 44 -88 -4 -83 790 -83 l698 0 0 -85 c0 -63 6 -100 24 -149 l23 -65 -721
-3 c-672 -3 -723 -4 -754 -21 -68 -37 -95 -119 -64 -190 39 -88 -28 -81 877
-87 l800 -5 12 -40 c7 -22 23 -61 35 -87 l21 -48 -28 -65 -27 -65 -797 0
c-906 0 -845 6 -889 -83 -19 -37 -22 -55 -17 -89 9 -52 66 -112 115 -122 18
-3 351 -6 741 -6 390 0 709 -3 708 -7 0 -5 -28 -71 -62 -148 l-63 -140 -669
-5 c-645 -5 -671 -6 -703 -25 -18 -11 -42 -39 -53 -63 -34 -69 -15 -135 55
-186 27 -21 39 -21 651 -24 l623 -2 21 -36 c14 -23 37 -42 66 -55 l45 -20 148
21 c81 11 157 22 169 23 18 2 40 -24 115 -133 52 -75 108 -144 127 -157 58
-39 137 -27 187 29 12 12 97 195 189 406 93 210 172 379 176 375 4 -5 80 -172
168 -372 l161 -365 0 -583 0 -583 -1645 0 -1645 0 0 2260 0 2260 1645 0 1645
0 0 -201z m-185 -438 c107 -63 137 -75 285 -116 52 -14 105 -35 116 -46 12
-11 29 -44 37 -72 8 -29 25 -86 37 -127 12 -41 40 -109 62 -150 100 -184 100
-184 94 -219 -3 -18 -32 -79 -65 -135 -57 -96 -69 -127 -123 -310 -16 -56 -30
-84 -48 -97 -14 -11 -81 -35 -150 -54 -76 -22 -152 -51 -195 -76 -38 -22 -98
-53 -133 -70 -74 -37 -80 -36 -216 45 -96 57 -159 82 -293 116 -44 12 -90 30
-101 40 -23 22 -40 66 -77 200 -16 60 -43 125 -72 175 -106 181 -106 181 -22
325 57 99 79 153 129 327 25 89 35 96 178 135 103 27 146 46 317 137 97 52
104 51 240 -28z m-632 -1612 c74 -18 214 -83 244 -112 10 -9 -17 -78 -122
-316 -73 -167 -136 -305 -138 -307 -2 -3 -19 18 -37 45 -41 65 -91 108 -132
116 -18 3 -64 1 -102 -5 -38 -6 -70 -9 -72 -8 -1 2 49 120 111 263 136 309
153 345 161 345 3 0 42 -9 87 -21z m1076 -6 c74 -160 253 -575 250 -578 -2 -2
-41 2 -85 7 -74 10 -85 9 -120 -9 -24 -12 -56 -43 -82 -81 -24 -34 -47 -62
-51 -62 -8 0 -271 589 -271 606 0 16 142 91 205 109 33 10 71 21 85 26 43 13
56 10 69 -18z"/>
<path d="M1075 4446 c-53 -24 -95 -85 -95 -138 0 -42 39 -104 79 -126 38 -22
43 -22 536 -22 438 0 501 2 531 16 109 52 109 215 1 265 -39 17 -71 19 -532
18 -386 0 -496 -3 -520 -13z"/>
<path d="M1075 1436 c-53 -24 -95 -85 -95 -138 0 -42 39 -104 79 -126 38 -22
43 -22 536 -22 438 0 501 2 531 16 109 52 109 215 1 265 -39 17 -71 19 -532
18 -386 0 -496 -3 -520 -13z"/>
<path d="M2772 903 c-34 -7 -89 -64 -100 -105 -19 -69 13 -139 80 -174 22 -11
92 -14 346 -14 314 0 320 0 352 23 51 34 72 68 72 118 1 54 -21 100 -64 131
-33 23 -35 23 -348 24 -173 1 -325 0 -338 -3z"/>
<path d="M3410 3957 c-209 -71 -343 -245 -357 -462 -10 -151 40 -279 151 -391
197 -197 501 -207 711 -22 183 161 222 456 87 664 -70 108 -192 196 -312 223
-79 18 -208 13 -280 -12z m257 -298 c122 -59 156 -231 64 -332 -119 -132 -327
-85 -372 83 -47 179 140 330 308 249z"/>
</g>
</svg>
