<?xml version="1.0" standalone="no"?>
<!DOCTYPE svg PUBLIC "-//W3C//DTD SVG 20010904//EN"
 "http://www.w3.org/TR/2001/REC-SVG-20010904/DTD/svg10.dtd">
<svg version="1.0" xmlns="http://www.w3.org/2000/svg"
 width="512.000000pt" height="512.000000pt" viewBox="0 0 512.000000 512.000000"
 preserveAspectRatio="xMidYMid meet">

<g transform="translate(0.000000,512.000000) scale(0.100000,-0.100000)"
fill="#000000" stroke="none">
<path d="M2486 4950 c-352 -56 -647 -271 -801 -585 -102 -208 -123 -338 -106
-672 15 -306 2 -415 -77 -624 -108 -285 -131 -457 -98 -749 l13 -115 -30 -43
c-16 -24 -33 -40 -37 -35 -4 4 -26 58 -50 118 -24 61 -54 131 -66 156 -81 164
-311 172 -409 15 -26 -43 -30 -59 -30 -120 0 -48 6 -81 18 -103 l18 -33 -103
0 c-118 0 -173 13 -278 64 -115 56 -188 45 -254 -37 l-31 -39 -3 -159 c-4
-186 7 -232 65 -293 78 -80 317 -176 440 -176 l53 0 0 -120 c0 -66 -14 -294
-30 -508 -17 -213 -28 -407 -25 -432 15 -111 97 -219 203 -268 50 -24 70 -27
157 -27 81 0 109 4 146 21 96 45 113 69 330 474 112 209 206 380 209 380 3 0
15 -33 28 -73 13 -40 41 -101 63 -135 l39 -63 0 -304 0 -305 80 0 80 0 0 331
0 331 -48 72 c-69 103 -87 166 -87 306 0 86 5 130 19 174 23 68 77 156 131
208 l38 37 -54 62 -53 62 -63 -67 c-49 -53 -79 -101 -142 -224 -43 -86 -147
-283 -230 -437 l-151 -280 0 485 0 485 62 155 c69 173 90 211 145 265 94 91
176 115 393 115 l155 -1 235 -432 c253 -465 252 -464 318 -441 22 7 45 42 117
174 l90 165 5 -553 c5 -545 5 -554 26 -571 12 -9 92 -30 197 -51 l177 -34 0
-168 0 -168 80 0 80 0 0 150 c0 83 4 150 8 150 5 0 76 -14 157 -30 89 -18 179
-30 226 -30 l78 0 32 -61 c120 -224 417 -240 558 -29 l43 65 102 17 c55 10
111 20 123 23 38 9 92 64 104 106 7 21 18 39 26 39 8 0 25 11 38 25 l25 24 0
711 0 711 -25 24 c-13 14 -34 25 -47 25 -62 0 -792 -131 -833 -149 -52 -23
-46 -29 -90 87 -15 40 -44 98 -65 130 l-37 57 13 115 c33 289 7 484 -97 748
-77 194 -94 330 -78 634 16 313 -3 448 -91 635 -138 294 -396 509 -708 589
-109 28 -313 40 -416 24z m379 -179 c88 -23 219 -82 293 -133 157 -107 292
-292 350 -479 40 -128 46 -212 33 -458 -15 -296 -1 -437 63 -618 14 -37 41
-113 60 -168 53 -150 69 -262 63 -433 -3 -79 -8 -146 -11 -149 -3 -3 -26 4
-51 16 -89 42 -157 51 -385 51 -155 0 -219 3 -228 12 -8 8 -12 61 -12 174 l0
161 53 35 c171 114 303 325 336 535 6 39 11 180 11 311 0 214 -2 242 -18 262
-13 17 -45 27 -142 46 -315 63 -630 212 -872 414 -92 77 -128 69 -184 -43 -73
-143 -178 -273 -292 -358 -99 -74 -92 -48 -92 -329 0 -271 8 -342 56 -469 51
-138 170 -288 292 -369 l52 -35 0 -161 c0 -113 -4 -166 -12 -174 -9 -9 -73
-12 -228 -12 -226 0 -288 -8 -384 -50 -27 -11 -52 -18 -55 -14 -3 3 -6 87 -6
187 1 209 12 272 88 468 94 243 113 382 96 710 -9 176 -9 245 0 309 58 397
349 700 744 776 98 19 279 11 382 -15z m-433 -641 c233 -167 509 -286 821
-355 l29 -6 -4 -227 c-4 -215 -5 -231 -30 -300 -37 -104 -83 -176 -158 -252
-76 -75 -148 -121 -252 -158 -63 -22 -89 -26 -193 -27 -97 0 -133 4 -190 22
-163 52 -309 175 -383 323 -61 122 -72 186 -72 436 l0 210 66 55 c81 66 182
181 237 271 23 37 43 68 44 68 1 0 39 -27 85 -60z m208 -1483 c90 0 153 5 188
15 l52 15 0 -141 c0 -162 12 -202 75 -253 l37 -31 -47 -86 -47 -86 -258 0
-258 0 -47 86 -47 86 37 31 c63 51 75 91 75 253 l0 141 53 -15 c34 -10 97 -15
187 -15z m-1563 -299 c11 -13 43 -81 72 -153 l51 -130 0 -192 0 -193 -287 0
c-209 0 -302 4 -338 14 -70 18 -232 102 -245 125 -13 26 -14 281 0 281 6 0 38
-14 71 -31 111 -55 189 -69 401 -69 187 0 189 0 213 25 35 34 31 63 -20 165
-25 49 -45 99 -45 110 0 31 44 70 78 70 17 0 37 -9 49 -22z m2506 -137 c84
-33 169 -115 212 -206 19 -40 35 -77 35 -83 0 -6 -18 -3 -45 9 -27 12 -179 42
-380 76 l-334 56 47 89 47 89 180 -4 c158 -3 187 -6 238 -26z m-801 -343 c-16
-29 -53 -97 -81 -150 -29 -54 -56 -98 -61 -98 -5 0 -32 44 -61 98 -28 53 -65
121 -81 150 l-30 52 172 0 172 0 -30 -52z m591 -18 c166 -28 321 -57 344 -66
38 -14 103 -75 103 -96 0 -16 -51 -8 -412 64 l-368 73 0 37 c0 28 4 38 16 38
8 0 151 -23 317 -50z m1427 12 l0 -37 -367 -73 c-355 -70 -413 -79 -413 -65 0
16 54 75 83 90 29 15 603 120 670 122 25 1 27 -2 27 -37z m-1417 -267 l297
-60 0 -478 0 -479 -22 4 c-13 2 -157 31 -320 64 l-298 59 0 479 0 478 23 -4
c12 -2 156 -31 320 -63z m1417 -259 l0 -324 -44 16 c-42 15 -53 15 -188 -6
-185 -30 -238 -45 -270 -79 -48 -50 -58 -91 -58 -228 0 -69 -4 -125 -9 -125
-5 0 -23 -3 -40 -6 l-31 -6 0 478 0 479 308 62 c169 34 313 62 320 62 9 1 12
-70 12 -323z m-3600 104 l0 -80 -160 0 -160 0 0 80 0 80 160 0 160 0 0 -80z
m2800 -400 l0 -480 -80 0 -80 0 0 480 0 480 80 0 80 0 0 -480z m-2800 -200 c0
-303 -2 -367 -15 -398 -68 -160 -283 -160 -350 2 -15 35 -14 62 11 397 l28
359 163 0 163 0 0 -360z m3515 -120 l0 -154 -157 -27 -158 -26 0 153 c0 111 3
155 13 161 16 11 245 52 277 50 l25 -2 0 -155z m-445 -300 c0 -5 16 -20 36
-34 l36 -24 -26 -17 c-59 -39 -150 -28 -201 25 l-28 29 24 6 c117 27 159 31
159 15z"/>
<path d="M2235 3751 c-45 -20 -70 -60 -70 -112 0 -42 5 -53 33 -81 28 -28 39
-33 82 -33 43 0 54 5 82 33 28 28 33 39 33 82 0 42 -5 54 -31 81 -33 33 -92
46 -129 30z"/>
<path d="M2955 3751 c-45 -20 -70 -60 -70 -112 0 -42 5 -53 33 -81 28 -28 39
-33 82 -33 43 0 54 5 82 33 28 28 33 39 33 82 0 42 -5 54 -31 81 -33 33 -92
46 -129 30z"/>
<path d="M2400 3344 c0 -47 28 -102 75 -149 73 -74 151 -92 248 -59 77 26 157
132 157 208 0 13 -12 16 -77 16 -78 0 -78 0 -93 -33 -18 -38 -58 -55 -97 -41
-16 5 -34 23 -43 41 -15 33 -15 33 -92 33 -66 0 -78 -3 -78 -16z"/>
</g>
</svg>
